<?xml version="1.0" standalone="no"?>
<!DOCTYPE svg PUBLIC "-//W3C//DTD SVG 20010904//EN"
 "http://www.w3.org/TR/2001/REC-SVG-20010904/DTD/svg10.dtd">
<svg version="1.0" xmlns="http://www.w3.org/2000/svg"
 width="4061.000000pt" height="3552.000000pt" viewBox="0 0 4061.000000 3552.000000"
 preserveAspectRatio="xMidYMid meet">

<g transform="translate(0.000000,3552.000000) scale(0.100000,-0.100000)"
fill="#0028ff" stroke="#0028ff" fill-opacity="0.1">

<path d="M19580 35509 c-610 -20 -1296 -72 -1905 -145 -357 -42 -779 -105
-792 -117 -15 -15 -2802 -4821 -2798 -4825 2 -2 54 15 117 38 3174 1172 6751
1397 10083 634 748 -171 1540 -407 2224 -663 l83 -31 -19 32 c-10 18 -641
1107 -1403 2420 l-1383 2387 -61 10 c-119 21 -624 91 -831 116 -1074 128
-2241 179 -3315 144z"/>
<path d="M19860 27534 c-665 -30 -1096 -70 -1630 -150 -2508 -375 -4902 -1471
-6845 -3133 -498 -426 -1005 -926 -1425 -1406 -366 -417 -725 -882 -1023
-1321 -142 -209 -847 -1421 -977 -1679 -293 -581 -584 -1311 -795 -1995 -598
-1942 -756 -4023 -459 -6055 362 -2475 1393 -4786 3007 -6740 575 -697 1286
-1396 1997 -1966 1796 -1438 3911 -2401 6155 -2803 1604 -287 3296 -287 4900
0 2244 402 4365 1368 6155 2803 714 573 1422 1269 1997 1966 881 1066 1586
2235 2112 3498 1388 3333 1388 7171 0 10504 -834 2003 -2125 3775 -3784 5194
-1431 1224 -3112 2146 -4910 2694 -1058 322 -2080 503 -3255 575 -170 11
-1069 21 -1220 14z m890 -3894 c1824 -85 3519 -640 5025 -1645 1558 -1040
2786 -2499 3542 -4210 1173 -2654 1104 -5718 -187 -8320 -765 -1541 -1918
-2850 -3355 -3810 -802 -536 -1656 -943 -2557 -1219 -754 -230 -1444 -357
-2283 -418 -223 -16 -1017 -16 -1240 0 -1066 78 -1991 280 -2925 640 -1544
595 -2941 1597 -4008 2875 -1662 1990 -2464 4533 -2247 7122 180 2144 1052
4148 2506 5760 892 990 2020 1811 3254 2370 1379 625 2954 926 4475 855z"/>
<path d="M19960 19639 c-768 -48 -1511 -242 -2185 -568 -1633 -791 -2820
-2312 -3175 -4071 -87 -430 -114 -713 -114 -1175 0 -464 27 -746 114 -1175
236 -1168 849 -2259 1729 -3077 926 -862 2073 -1393 3306 -1532 479 -54 881
-54 1360 0 1830 206 3453 1278 4395 2904 83 144 273 537 338 700 562 1404 562
2955 0 4360 -78 196 -274 593 -381 772 -603 1008 -1461 1797 -2502 2299 -880
424 -1908 625 -2885 563z"/>
<path d="M37822 10837 c-62 -377 -175 -918 -278 -1332 -767 -3068 -2329 -5850
-4563 -8128 -406 -414 -1021 -975 -1413 -1291 -54 -43 -98 -80 -98 -82 0 -2
1239 -4 2753 -4 l2752 1 130 161 c652 807 1174 1541 1680 2363 553 897 1072
1904 1487 2880 66 154 284 700 313 781 l18 52 -1374 2371 c-756 1303 -1376
2371 -1379 2371 -3 0 -15 -64 -28 -143z"/>
<path d="M1392 8540 l-1391 -2400 118 -297 c258 -645 465 -1104 782 -1733 707
-1403 1521 -2657 2564 -3948 l130 -161 2783 -1 c1530 0 2782 2 2782 4 0 2 -44
39 -97 82 -585 469 -1344 1191 -1904 1809 -2265 2502 -3749 5529 -4333 8839
-19 109 -37 200 -39 202 -2 2 -630 -1076 -1395 -2396z"/>
</g>
</svg>
