<?xml version="1.0" standalone="no"?>
<!DOCTYPE svg PUBLIC "-//W3C//DTD SVG 20010904//EN"
 "http://www.w3.org/TR/2001/REC-SVG-20010904/DTD/svg10.dtd">
<svg version="1.0" xmlns="http://www.w3.org/2000/svg"
 width="1858.000000pt" height="1206.000000pt" viewBox="0 0 1858.000000 1206.000000"
 preserveAspectRatio="xMidYMid meet">

<g transform="translate(0.000000,1206.000000) scale(0.100000,-0.100000)"
fill="#0028ff" stroke="#0028ff" fill-opacity="0.1">

<path d="M5055 12055 c-5 -2 -102 -11 -215 -20 -1476 -117 -2631 -689 -3406
-1686 -703 -905 -1146 -2132 -1353 -3749 -30 -234 -61 -511 -61 -550 l0 -20
1543 2 1542 3 22 200 c26 242 59 490 79 605 124 699 265 1116 495 1460 72 109
197 261 250 305 13 11 49 41 79 66 224 187 532 304 961 366 176 25 690 25 869
0 646 -91 999 -295 1305 -752 66 -100 170 -302 219 -425 151 -387 272 -950
336 -1565 72 -693 100 -918 156 -1265 241 -1496 722 -2667 1436 -3495 126
-145 387 -399 521 -505 670 -530 1460 -845 2430 -970 217 -28 692 -60 897 -60
243 0 598 24 895 61 735 91 1414 318 1985 663 453 274 835 622 1165 1061 542
721 935 1679 1164 2835 75 376 148 871 181 1220 6 63 13 132 16 153 l6 37
-1546 0 -1545 0 -5 -32 c-3 -18 -16 -141 -30 -273 -85 -787 -247 -1416 -467
-1808 -152 -271 -339 -481 -549 -617 -209 -135 -519 -232 -885 -277 -189 -23
-587 -23 -774 1 -279 34 -580 115 -754 202 -286 144 -538 412 -715 762 -217
428 -368 1067 -446 1887 -55 567 -134 1144 -212 1540 -155 786 -377 1463 -674
2055 -433 865 -998 1490 -1730 1915 -623 362 -1333 572 -2200 651 -169 16
-956 31 -985 19z" />
</g>
<animate attributeName="x" from="0" to="1858" dur="2s" repeatCount="indefinite" keySplines="0.5 0 0.5 1" target="path" begin="0s" />
</svg>
