<?xml version="1.0" standalone="no"?>
<!DOCTYPE svg PUBLIC "-//W3C//DTD SVG 20010904//EN"
 "http://www.w3.org/TR/2001/REC-SVG-20010904/DTD/svg10.dtd">
<svg version="1.0" xmlns="http://www.w3.org/2000/svg"
 width="19463.000000pt" height="3552.000000pt" viewBox="0 0 19463.000000 3552.000000"
 preserveAspectRatio="xMidYMid meet">

<g transform="translate(0.000000,3552.000000) scale(0.100000,-0.100000)"
fill="#FFFFFF" stroke="none">
<path d="M19580 35509 c-610 -20 -1296 -72 -1905 -145 -357 -42 -779 -105
-792 -117 -15 -15 -2802 -4821 -2798 -4825 2 -2 54 15 117 38 3174 1172 6751
1397 10083 634 748 -171 1540 -407 2224 -663 l83 -31 -19 32 c-10 18 -641
1107 -1403 2420 l-1383 2387 -61 10 c-119 21 -624 91 -831 116 -1074 128
-2241 179 -3315 144z"/>
<path d="M140240 29639 c-852 -28 -1722 -203 -2448 -490 -795 -315 -1472 -910
-1955 -1719 -357 -599 -588 -1418 -676 -2400 -37 -405 -42 -583 -48 -1542 l-6
-948 -1351 -2 -1351 -3 0 -1935 0 -1935 1338 -3 1337 -2 0 -6215 0 -6215 2500
0 2500 0 0 6215 0 6215 1620 0 1620 0 -2 1938 -3 1937 -1617 3 -1618 2 0 789
c0 922 9 1076 76 1361 95 402 220 602 449 715 208 103 489 129 810 75 216 -37
467 -128 773 -281 167 -84 174 -86 182 -65 6 17 1513 3627 1564 3747 l15 37
-179 76 c-608 259 -1283 462 -1831 550 -174 28 -448 60 -652 76 -126 10 -738
31 -797 28 -14 -1 -126 -5 -250 -9z"/>
<path d="M58482 29233 c-11 -27 -2168 -5209 -4792 -11518 -2625 -6309 -4774
-11473 -4777 -11478 -2 -4 1270 -6 2827 -5 l2831 3 744 1945 744 1945 4338 0
4338 0 735 -1947 735 -1947 2828 -1 c1555 0 2827 3 2827 6 0 4 -9206 22214
-9497 22912 l-56 132 -1902 0 -1903 0 -20 -47z m3227 -11103 l1268 -3355
-2565 -3 c-1411 -1 -2567 0 -2570 2 -4 4 2561 6725 2576 6751 3 5 9 -2 14 -15
5 -14 579 -1535 1277 -3380z"/>
<path d="M100960 24908 l0 -4372 -78 120 c-373 568 -869 1076 -1387 1421 -478
318 -1098 571 -1740 708 -873 186 -1875 143 -2789 -120 -1409 -406 -2618
-1309 -3473 -2595 -651 -977 -1069 -2060 -1293 -3342 -215 -1238 -247 -2736
-84 -4033 178 -1429 602 -2748 1217 -3785 724 -1222 1769 -2152 2937 -2614
559 -220 1114 -347 1790 -408 232 -21 935 -18 1135 5 467 54 893 151 1377 316
572 195 979 439 1459 876 293 266 651 685 857 1002 l67 104 3 -980 2 -981
2480 0 2480 0 0 11525 0 11525 -2480 0 -2480 0 0 -4372z m-2243 -6607 c557
-76 1022 -267 1423 -587 132 -105 375 -355 480 -494 441 -582 689 -1290 777
-2220 24 -261 24 -937 0 -1200 -53 -564 -158 -1027 -329 -1450 -334 -825 -895
-1412 -1628 -1703 -563 -224 -1342 -275 -2005 -132 -518 111 -986 357 -1353
710 -729 701 -1100 1851 -1069 3320 25 1178 290 2060 818 2727 454 571 1143
941 1924 1033 195 22 207 23 520 20 223 -3 325 -8 442 -24z"/>
<path d="M108430 27030 l0 -2250 2550 0 2550 0 0 2250 0 2250 -2550 0 -2550 0
0 -2250z"/>
<path d="M189670 24913 l0 -4366 -82 124 c-500 752 -1133 1326 -1853 1679
-970 475 -2015 641 -3155 499 -1024 -127 -2028 -538 -2875 -1176 -795 -599
-1437 -1382 -1951 -2378 -590 -1145 -905 -2420 -1004 -4060 -18 -284 -24
-1083 -11 -1385 52 -1250 231 -2276 576 -3305 501 -1496 1268 -2637 2335
-3476 910 -715 1975 -1104 3254 -1188 232 -16 701 -14 901 4 501 44 1021 159
1540 343 502 177 896 411 1325 788 317 278 736 759 938 1078 l57 90 3 -977 2
-977 2480 0 2480 0 0 11525 0 11525 -2480 0 -2480 0 0 -4367z m-2270 -6607
c174 -23 394 -69 535 -111 976 -294 1681 -1075 2006 -2220 85 -299 152 -707
180 -1090 26 -350 14 -897 -27 -1260 -97 -865 -371 -1588 -812 -2145 -93 -116
-307 -333 -422 -424 -343 -275 -743 -461 -1185 -550 -465 -95 -1022 -95 -1485
0 -801 164 -1452 623 -1863 1313 -313 523 -495 1134 -573 1919 -21 214 -30
862 -15 1102 66 1057 338 1861 836 2465 97 117 287 305 400 395 428 339 964
552 1540 609 61 6 126 13 145 15 90 10 622 -3 740 -18z"/>
<path d="M19860 27534 c-665 -30 -1096 -70 -1630 -150 -2508 -375 -4902 -1471
-6845 -3133 -498 -426 -1005 -926 -1425 -1406 -366 -417 -725 -882 -1023
-1321 -142 -209 -847 -1421 -977 -1679 -293 -581 -584 -1311 -795 -1995 -598
-1942 -756 -4023 -459 -6055 362 -2475 1393 -4786 3007 -6740 575 -697 1286
-1396 1997 -1966 1796 -1438 3911 -2401 6155 -2803 1604 -287 3296 -287 4900
0 2244 402 4365 1368 6155 2803 714 573 1422 1269 1997 1966 881 1066 1586
2235 2112 3498 1388 3333 1388 7171 0 10504 -834 2003 -2125 3775 -3784 5194
-1431 1224 -3112 2146 -4910 2694 -1058 322 -2080 503 -3255 575 -170 11
-1069 21 -1220 14z m890 -3894 c1824 -85 3519 -640 5025 -1645 1558 -1040
2786 -2499 3542 -4210 1173 -2654 1104 -5718 -187 -8320 -765 -1541 -1918
-2850 -3355 -3810 -802 -536 -1656 -943 -2557 -1219 -754 -230 -1444 -357
-2283 -418 -223 -16 -1017 -16 -1240 0 -1066 78 -1991 280 -2925 640 -1544
595 -2941 1597 -4008 2875 -1662 1990 -2464 4533 -2247 7122 180 2144 1052
4148 2506 5760 892 990 2020 1811 3254 2370 1379 625 2954 926 4475 855z"/>
<path d="M19960 19639 c-768 -48 -1511 -242 -2185 -568 -1633 -791 -2820
-2312 -3175 -4071 -87 -430 -114 -713 -114 -1175 0 -464 27 -746 114 -1175
236 -1168 849 -2259 1729 -3077 926 -862 2073 -1393 3306 -1532 479 -54 881
-54 1360 0 1830 206 3453 1278 4395 2904 83 144 273 537 338 700 562 1404 562
2955 0 4360 -78 196 -274 593 -381 772 -603 1008 -1461 1797 -2502 2299 -880
424 -1908 625 -2885 563z"/>
<path d="M123295 22894 c-407 -20 -708 -48 -1029 -95 -1392 -202 -2656 -725
-3755 -1552 -517 -389 -993 -847 -1387 -1337 -1020 -1266 -1620 -2749 -1793
-4430 -42 -406 -46 -502 -46 -1085 1 -597 7 -741 56 -1159 191 -1656 804
-3132 1820 -4386 312 -385 701 -778 1094 -1106 275 -228 694 -524 1015 -717
1155 -692 2439 -1070 3895 -1148 289 -15 1023 -6 1280 16 1506 128 2746 547
3917 1322 642 424 1225 945 1723 1540 218 260 506 661 692 963 758 1231 1164
2569 1253 4124 13 229 13 877 0 1116 -77 1414 -421 2658 -1043 3775 -803 1443
-1973 2568 -3427 3295 -982 492 -2011 762 -3235 850 -147 11 -893 21 -1030 14z
m865 -4388 c434 -50 798 -155 1139 -328 842 -426 1379 -1202 1615 -2333 164
-790 177 -1881 31 -2712 -159 -900 -488 -1597 -981 -2074 -455 -439 -1047
-706 -1764 -795 -178 -22 -680 -30 -878 -15 -694 55 -1281 272 -1752 647 -114
91 -329 307 -422 424 -470 593 -751 1379 -843 2360 -50 542 -39 1189 29 1716
127 964 461 1721 1000 2260 517 517 1166 796 2006 863 164 14 658 5 820 -13z"/>
<path d="M151275 22889 c-1332 -60 -2445 -337 -3406 -849 -1165 -621 -2006
-1406 -2701 -2520 -581 -933 -964 -1920 -1207 -3114 -165 -811 -231 -1562
-210 -2404 27 -1071 212 -2132 543 -3108 419 -1237 1176 -2382 2102 -3179 781
-673 1772 -1201 2794 -1490 602 -170 1225 -274 1980 -331 289 -22 1198 -30
1568 -15 2277 95 3643 553 5882 1974 328 208 502 327 497 340 -6 15 -2097
3480 -2106 3489 -3 3 -60 -34 -126 -84 -1074 -806 -2605 -1351 -4070 -1448
-195 -13 -676 -13 -841 0 -678 53 -1238 200 -1772 465 -296 147 -509 290 -700
471 -374 351 -636 864 -740 1446 l-19 108 5356 2 5356 3 12 95 c47 371 71 715
82 1145 33 1301 -107 2488 -424 3595 -541 1894 -1587 3364 -3045 4282 -1110
699 -2335 1059 -3835 1128 -247 11 -713 11 -970 -1z m1055 -4153 c427 -59 776
-168 1126 -350 524 -273 893 -638 1124 -1111 133 -273 202 -533 234 -887 l7
-68 -3071 0 c-2481 0 -3070 2 -3070 13 0 23 58 250 85 332 108 330 304 715
489 963 98 131 315 351 455 461 532 420 1051 608 1841 665 134 9 669 -3 780
-18z"/>
<path d="M72527 22533 c-12 -11 -8 -10269 3 -10533 53 -1235 304 -2324 744
-3225 126 -258 196 -381 342 -600 197 -296 396 -536 647 -781 921 -899 2044
-1366 3607 -1500 251 -21 953 -30 1175 -15 831 57 1563 253 2285 612 440 219
714 410 1034 720 283 275 524 580 793 1005 9 15 12 -204 12 -983 l1 -1003
2500 0 2500 0 -2 8153 -3 8152 -2497 3 -2498 2 0 -2887 c0 -3249 -7 -3808 -55
-4803 -64 -1287 -132 -1880 -285 -2465 -136 -521 -346 -993 -600 -1347 -69
-96 -303 -325 -410 -400 -171 -121 -430 -243 -650 -306 -677 -195 -1666 -167
-2249 64 -241 95 -408 203 -590 379 -205 199 -340 384 -461 630 -135 275 -207
547 -279 1052 -71 494 -65 47 -71 5323 l-5 4755 -2491 3 c-1370 1 -2494 -1
-2497 -5z"/>
<path d="M108467 22533 c-4 -3 -7 -3673 -7 -8155 l0 -8148 2500 0 2500 0 0
8155 0 8155 -2493 0 c-1372 0 -2497 -3 -2500 -7z"/>
<path d="M161240 17318 c0 -3364 4 -5291 10 -5413 55 -1037 239 -1923 572
-2755 399 -997 1031 -1781 1898 -2355 526 -348 1098 -585 1785 -740 559 -126
1137 -185 1810 -185 335 0 498 8 750 36 763 85 1539 330 2200 696 142 78 394
246 515 343 378 302 740 713 1023 1163 l72 114 3 -996 2 -996 2500 0 2500 0 0
8155 0 8155 -2497 -2 -2498 -3 -6 -3355 c-4 -2255 -9 -3444 -17 -3625 -25
-593 -33 -764 -52 -1090 -62 -1044 -120 -1515 -257 -2050 -89 -351 -190 -627
-339 -924 -186 -372 -351 -593 -584 -780 -336 -270 -764 -430 -1304 -486 -548
-56 -1157 -6 -1573 130 -169 55 -386 162 -513 252 -117 84 -321 286 -417 413
-208 276 -344 569 -422 911 -93 409 -143 817 -161 1300 -6 158 -10 2071 -10
4787 l0 4522 -2495 0 -2495 0 0 -5222z"/>
<path d="M37822 10837 c-62 -377 -175 -918 -278 -1332 -767 -3068 -2329 -5850
-4563 -8128 -406 -414 -1021 -975 -1413 -1291 -54 -43 -98 -80 -98 -82 0 -2
1239 -4 2753 -4 l2752 1 130 161 c652 807 1174 1541 1680 2363 553 897 1072
1904 1487 2880 66 154 284 700 313 781 l18 52 -1374 2371 c-756 1303 -1376
2371 -1379 2371 -3 0 -15 -64 -28 -143z"/>
<path d="M1392 8540 l-1391 -2400 118 -297 c258 -645 465 -1104 782 -1733 707
-1403 1521 -2657 2564 -3948 l130 -161 2783 -1 c1530 0 2782 2 2782 4 0 2 -44
39 -97 82 -585 469 -1344 1191 -1904 1809 -2265 2502 -3749 5529 -4333 8839
-19 109 -37 200 -39 202 -2 2 -630 -1076 -1395 -2396z"/>
</g>
</svg>
